<mxfile host="app.diagrams.net" modified="2021-08-07T00:36:50.374Z" agent="5.0 (X11)" etag="aYE4fDKESb009XRzo76-" version="14.9.4" type="github">
  <diagram id="sMXiV06eMUX1r8Gc8Mpe" name="Page-1">
    <mxGraphModel dx="2103" dy="627" grid="1" gridSize="10" guides="1" tooltips="1" connect="1" arrows="1" fold="1" page="1" pageScale="1" pageWidth="850" pageHeight="1100" math="1" shadow="0">
      <root>
        <mxCell id="0" />
        <mxCell id="1" parent="0" />
        <mxCell id="MN956ZE3z-NAZyp3KeIA-1" value="Working Capital Management" style="rounded=1;whiteSpace=wrap;html=1;" parent="1" vertex="1">
          <mxGeometry x="360" width="120" height="40" as="geometry" />
        </mxCell>
        <mxCell id="9jcXlWBaS0kGvRiVqAq9-134" style="edgeStyle=orthogonalEdgeStyle;rounded=0;orthogonalLoop=1;jettySize=auto;html=1;" edge="1" parent="1" source="MN956ZE3z-NAZyp3KeIA-2" target="MN956ZE3z-NAZyp3KeIA-4">
          <mxGeometry relative="1" as="geometry" />
        </mxCell>
        <mxCell id="9jcXlWBaS0kGvRiVqAq9-135" style="edgeStyle=orthogonalEdgeStyle;rounded=0;orthogonalLoop=1;jettySize=auto;html=1;" edge="1" parent="1" source="MN956ZE3z-NAZyp3KeIA-2" target="MN956ZE3z-NAZyp3KeIA-3">
          <mxGeometry relative="1" as="geometry" />
        </mxCell>
        <mxCell id="MN956ZE3z-NAZyp3KeIA-2" value="Methods" style="rounded=0;whiteSpace=wrap;html=1;" parent="1" vertex="1">
          <mxGeometry x="380" y="120" width="120" height="40" as="geometry" />
        </mxCell>
        <mxCell id="MN956ZE3z-NAZyp3KeIA-3" value="&lt;div&gt;Cash cost &lt;br&gt;&lt;/div&gt;&lt;div&gt;method&lt;/div&gt;" style="rounded=1;whiteSpace=wrap;html=1;" parent="1" vertex="1">
          <mxGeometry x="440" y="200" width="100" height="40" as="geometry" />
        </mxCell>
        <mxCell id="MN956ZE3z-NAZyp3KeIA-4" value="&lt;div&gt;Total cost &lt;br&gt;&lt;/div&gt;&lt;div&gt;method&lt;/div&gt;" style="rounded=1;whiteSpace=wrap;html=1;" parent="1" vertex="1">
          <mxGeometry x="340" y="200" width="100" height="40" as="geometry" />
        </mxCell>
        <mxCell id="9jcXlWBaS0kGvRiVqAq9-1" value="Working Capital Operating cycle" style="rounded=1;whiteSpace=wrap;html=1;" vertex="1" parent="1">
          <mxGeometry x="1090" y="270" width="200" height="40" as="geometry" />
        </mxCell>
        <mxCell id="9jcXlWBaS0kGvRiVqAq9-18" style="edgeStyle=orthogonalEdgeStyle;rounded=0;orthogonalLoop=1;jettySize=auto;html=1;exitX=0.5;exitY=1;exitDx=0;exitDy=0;" edge="1" parent="1" source="9jcXlWBaS0kGvRiVqAq9-1" target="9jcXlWBaS0kGvRiVqAq9-2">
          <mxGeometry relative="1" as="geometry" />
        </mxCell>
        <mxCell id="9jcXlWBaS0kGvRiVqAq9-2" value="" style="shape=table;startSize=0;container=1;collapsible=0;childLayout=tableLayout;" vertex="1" parent="1">
          <mxGeometry x="1050" y="330" width="280" height="300" as="geometry" />
        </mxCell>
        <mxCell id="9jcXlWBaS0kGvRiVqAq9-3" value="" style="shape=partialRectangle;collapsible=0;dropTarget=0;pointerEvents=0;fillColor=none;top=0;left=0;bottom=0;right=0;points=[[0,0.5],[1,0.5]];portConstraint=eastwest;" vertex="1" parent="9jcXlWBaS0kGvRiVqAq9-2">
          <mxGeometry width="280" height="20" as="geometry" />
        </mxCell>
        <mxCell id="9jcXlWBaS0kGvRiVqAq9-4" value="Particulars" style="shape=partialRectangle;html=1;whiteSpace=wrap;connectable=0;overflow=hidden;fillColor=none;top=0;left=0;bottom=0;right=0;pointerEvents=1;" vertex="1" parent="9jcXlWBaS0kGvRiVqAq9-3">
          <mxGeometry width="200" height="20" as="geometry" />
        </mxCell>
        <mxCell id="9jcXlWBaS0kGvRiVqAq9-5" value="&lt;u&gt;&lt;b&gt;Days&lt;/b&gt;&lt;/u&gt;" style="shape=partialRectangle;html=1;whiteSpace=wrap;connectable=0;overflow=hidden;fillColor=none;top=0;left=0;bottom=0;right=0;pointerEvents=1;" vertex="1" parent="9jcXlWBaS0kGvRiVqAq9-3">
          <mxGeometry x="200" width="80" height="20" as="geometry" />
        </mxCell>
        <mxCell id="9jcXlWBaS0kGvRiVqAq9-6" value="" style="shape=partialRectangle;collapsible=0;dropTarget=0;pointerEvents=0;fillColor=none;top=0;left=0;bottom=0;right=0;points=[[0,0.5],[1,0.5]];portConstraint=eastwest;" vertex="1" parent="9jcXlWBaS0kGvRiVqAq9-2">
          <mxGeometry y="20" width="280" height="40" as="geometry" />
        </mxCell>
        <mxCell id="9jcXlWBaS0kGvRiVqAq9-7" value="&lt;div&gt;Avg. Holding period of RM stock&lt;/div&gt;" style="shape=partialRectangle;html=1;whiteSpace=wrap;connectable=0;overflow=hidden;fillColor=none;top=0;left=0;bottom=0;right=0;pointerEvents=1;" vertex="1" parent="9jcXlWBaS0kGvRiVqAq9-6">
          <mxGeometry width="200" height="40" as="geometry" />
        </mxCell>
        <mxCell id="9jcXlWBaS0kGvRiVqAq9-8" value="xx" style="shape=partialRectangle;html=1;whiteSpace=wrap;connectable=0;overflow=hidden;fillColor=none;top=0;left=0;bottom=0;right=0;pointerEvents=1;" vertex="1" parent="9jcXlWBaS0kGvRiVqAq9-6">
          <mxGeometry x="200" width="80" height="40" as="geometry" />
        </mxCell>
        <mxCell id="9jcXlWBaS0kGvRiVqAq9-19" style="shape=partialRectangle;collapsible=0;dropTarget=0;pointerEvents=0;fillColor=none;top=0;left=0;bottom=0;right=0;points=[[0,0.5],[1,0.5]];portConstraint=eastwest;" vertex="1" parent="9jcXlWBaS0kGvRiVqAq9-2">
          <mxGeometry y="60" width="280" height="40" as="geometry" />
        </mxCell>
        <mxCell id="9jcXlWBaS0kGvRiVqAq9-20" value="&lt;div&gt;Avg conversion period of WIP&lt;/div&gt;" style="shape=partialRectangle;html=1;whiteSpace=wrap;connectable=0;overflow=hidden;fillColor=none;top=0;left=0;bottom=0;right=0;pointerEvents=1;" vertex="1" parent="9jcXlWBaS0kGvRiVqAq9-19">
          <mxGeometry width="200" height="40" as="geometry" />
        </mxCell>
        <mxCell id="9jcXlWBaS0kGvRiVqAq9-21" value="xx" style="shape=partialRectangle;html=1;whiteSpace=wrap;connectable=0;overflow=hidden;fillColor=none;top=0;left=0;bottom=0;right=0;pointerEvents=1;" vertex="1" parent="9jcXlWBaS0kGvRiVqAq9-19">
          <mxGeometry x="200" width="80" height="40" as="geometry" />
        </mxCell>
        <mxCell id="9jcXlWBaS0kGvRiVqAq9-22" style="shape=partialRectangle;collapsible=0;dropTarget=0;pointerEvents=0;fillColor=none;top=0;left=0;bottom=0;right=0;points=[[0,0.5],[1,0.5]];portConstraint=eastwest;" vertex="1" parent="9jcXlWBaS0kGvRiVqAq9-2">
          <mxGeometry y="100" width="280" height="40" as="geometry" />
        </mxCell>
        <mxCell id="9jcXlWBaS0kGvRiVqAq9-23" value="&lt;div&gt;Avg holding period of FG stock&lt;/div&gt;" style="shape=partialRectangle;html=1;whiteSpace=wrap;connectable=0;overflow=hidden;fillColor=none;top=0;left=0;bottom=0;right=0;pointerEvents=1;" vertex="1" parent="9jcXlWBaS0kGvRiVqAq9-22">
          <mxGeometry width="200" height="40" as="geometry" />
        </mxCell>
        <mxCell id="9jcXlWBaS0kGvRiVqAq9-24" value="xx" style="shape=partialRectangle;html=1;whiteSpace=wrap;connectable=0;overflow=hidden;fillColor=none;top=0;left=0;bottom=0;right=0;pointerEvents=1;" vertex="1" parent="9jcXlWBaS0kGvRiVqAq9-22">
          <mxGeometry x="200" width="80" height="40" as="geometry" />
        </mxCell>
        <mxCell id="9jcXlWBaS0kGvRiVqAq9-25" style="shape=partialRectangle;collapsible=0;dropTarget=0;pointerEvents=0;fillColor=none;top=0;left=0;bottom=0;right=0;points=[[0,0.5],[1,0.5]];portConstraint=eastwest;" vertex="1" parent="9jcXlWBaS0kGvRiVqAq9-2">
          <mxGeometry y="140" width="280" height="40" as="geometry" />
        </mxCell>
        <mxCell id="9jcXlWBaS0kGvRiVqAq9-26" value="Avg. collection period" style="shape=partialRectangle;html=1;whiteSpace=wrap;connectable=0;overflow=hidden;fillColor=none;top=0;left=0;bottom=0;right=0;pointerEvents=1;" vertex="1" parent="9jcXlWBaS0kGvRiVqAq9-25">
          <mxGeometry width="200" height="40" as="geometry" />
        </mxCell>
        <mxCell id="9jcXlWBaS0kGvRiVqAq9-27" value="xx" style="shape=partialRectangle;html=1;whiteSpace=wrap;connectable=0;overflow=hidden;fillColor=none;top=0;left=0;bottom=0;right=0;pointerEvents=1;" vertex="1" parent="9jcXlWBaS0kGvRiVqAq9-25">
          <mxGeometry x="200" width="80" height="40" as="geometry" />
        </mxCell>
        <mxCell id="9jcXlWBaS0kGvRiVqAq9-9" value="" style="shape=partialRectangle;collapsible=0;dropTarget=0;pointerEvents=0;fillColor=none;top=0;left=0;bottom=0;right=0;points=[[0,0.5],[1,0.5]];portConstraint=eastwest;" vertex="1" parent="9jcXlWBaS0kGvRiVqAq9-2">
          <mxGeometry y="180" width="280" height="40" as="geometry" />
        </mxCell>
        <mxCell id="9jcXlWBaS0kGvRiVqAq9-10" value="Gross Duration" style="shape=partialRectangle;html=1;whiteSpace=wrap;connectable=0;overflow=hidden;fillColor=none;top=0;left=0;bottom=0;right=0;pointerEvents=1;" vertex="1" parent="9jcXlWBaS0kGvRiVqAq9-9">
          <mxGeometry width="200" height="40" as="geometry" />
        </mxCell>
        <mxCell id="9jcXlWBaS0kGvRiVqAq9-11" value="xxxx" style="shape=partialRectangle;html=1;whiteSpace=wrap;connectable=0;overflow=hidden;fillColor=none;top=0;left=0;bottom=0;right=0;pointerEvents=1;" vertex="1" parent="9jcXlWBaS0kGvRiVqAq9-9">
          <mxGeometry x="200" width="80" height="40" as="geometry" />
        </mxCell>
        <mxCell id="9jcXlWBaS0kGvRiVqAq9-12" value="" style="shape=partialRectangle;collapsible=0;dropTarget=0;pointerEvents=0;fillColor=none;top=0;left=0;bottom=0;right=0;points=[[0,0.5],[1,0.5]];portConstraint=eastwest;" vertex="1" parent="9jcXlWBaS0kGvRiVqAq9-2">
          <mxGeometry y="220" width="280" height="40" as="geometry" />
        </mxCell>
        <mxCell id="9jcXlWBaS0kGvRiVqAq9-13" value="(-) Avg. Payment period" style="shape=partialRectangle;html=1;whiteSpace=wrap;connectable=0;overflow=hidden;fillColor=none;top=0;left=0;bottom=0;right=0;pointerEvents=1;" vertex="1" parent="9jcXlWBaS0kGvRiVqAq9-12">
          <mxGeometry width="200" height="40" as="geometry" />
        </mxCell>
        <mxCell id="9jcXlWBaS0kGvRiVqAq9-14" value="(xx)" style="shape=partialRectangle;html=1;whiteSpace=wrap;connectable=0;overflow=hidden;fillColor=none;top=0;left=0;bottom=0;right=0;pointerEvents=1;" vertex="1" parent="9jcXlWBaS0kGvRiVqAq9-12">
          <mxGeometry x="200" width="80" height="40" as="geometry" />
        </mxCell>
        <mxCell id="9jcXlWBaS0kGvRiVqAq9-15" value="" style="shape=partialRectangle;collapsible=0;dropTarget=0;pointerEvents=0;fillColor=none;top=0;left=0;bottom=0;right=0;points=[[0,0.5],[1,0.5]];portConstraint=eastwest;" vertex="1" parent="9jcXlWBaS0kGvRiVqAq9-2">
          <mxGeometry y="260" width="280" height="40" as="geometry" />
        </mxCell>
        <mxCell id="9jcXlWBaS0kGvRiVqAq9-16" value="Net duration&lt;span style=&quot;white-space: pre&quot;&gt;&lt;/span&gt;&lt;span style=&quot;white-space: pre&quot;&gt;&lt;/span&gt;" style="shape=partialRectangle;html=1;whiteSpace=wrap;connectable=0;overflow=hidden;fillColor=none;top=0;left=0;bottom=0;right=0;pointerEvents=1;" vertex="1" parent="9jcXlWBaS0kGvRiVqAq9-15">
          <mxGeometry width="200" height="40" as="geometry" />
        </mxCell>
        <mxCell id="9jcXlWBaS0kGvRiVqAq9-17" value="XXXX" style="shape=partialRectangle;html=1;whiteSpace=wrap;connectable=0;overflow=hidden;fillColor=none;top=0;left=0;bottom=0;right=0;pointerEvents=1;" vertex="1" parent="9jcXlWBaS0kGvRiVqAq9-15">
          <mxGeometry x="200" width="80" height="40" as="geometry" />
        </mxCell>
        <mxCell id="9jcXlWBaS0kGvRiVqAq9-30" style="edgeStyle=orthogonalEdgeStyle;rounded=0;orthogonalLoop=1;jettySize=auto;html=1;entryX=0;entryY=0.5;entryDx=0;entryDy=0;" edge="1" parent="1" source="9jcXlWBaS0kGvRiVqAq9-29" target="9jcXlWBaS0kGvRiVqAq9-6">
          <mxGeometry relative="1" as="geometry" />
        </mxCell>
        <mxCell id="9jcXlWBaS0kGvRiVqAq9-29" value="`\text{Avg. Stock of RM}/\text{RM consumed}xx \text{365/52/12}`" style="rounded=0;whiteSpace=wrap;html=1;" vertex="1" parent="1">
          <mxGeometry x="690" y="310" width="280" height="50" as="geometry" />
        </mxCell>
        <mxCell id="9jcXlWBaS0kGvRiVqAq9-34" style="edgeStyle=orthogonalEdgeStyle;rounded=0;orthogonalLoop=1;jettySize=auto;html=1;entryX=0;entryY=0.5;entryDx=0;entryDy=0;" edge="1" parent="1" source="9jcXlWBaS0kGvRiVqAq9-31" target="9jcXlWBaS0kGvRiVqAq9-19">
          <mxGeometry relative="1" as="geometry" />
        </mxCell>
        <mxCell id="9jcXlWBaS0kGvRiVqAq9-31" value="`\text{Avg. Stock of WIP}/\text{COP}xx \text{365/52/12}`" style="rounded=0;whiteSpace=wrap;html=1;" vertex="1" parent="1">
          <mxGeometry x="690" y="370" width="280" height="50" as="geometry" />
        </mxCell>
        <mxCell id="9jcXlWBaS0kGvRiVqAq9-35" style="edgeStyle=orthogonalEdgeStyle;rounded=0;orthogonalLoop=1;jettySize=auto;html=1;" edge="1" parent="1" source="9jcXlWBaS0kGvRiVqAq9-32" target="9jcXlWBaS0kGvRiVqAq9-22">
          <mxGeometry relative="1" as="geometry" />
        </mxCell>
        <mxCell id="9jcXlWBaS0kGvRiVqAq9-32" value="`\text{Avg. Stock of FG}/\text{COGS}xx \text{365/52/12}`" style="rounded=0;whiteSpace=wrap;html=1;" vertex="1" parent="1">
          <mxGeometry x="690" y="440" width="280" height="50" as="geometry" />
        </mxCell>
        <mxCell id="9jcXlWBaS0kGvRiVqAq9-36" style="edgeStyle=orthogonalEdgeStyle;rounded=0;orthogonalLoop=1;jettySize=auto;html=1;entryX=0;entryY=0.5;entryDx=0;entryDy=0;" edge="1" parent="1" source="9jcXlWBaS0kGvRiVqAq9-33" target="9jcXlWBaS0kGvRiVqAq9-25">
          <mxGeometry relative="1" as="geometry" />
        </mxCell>
        <mxCell id="9jcXlWBaS0kGvRiVqAq9-33" value="`\text{Avg. Debtors}/\text{Cr. sales}xx \text{365/52/12}`" style="rounded=0;whiteSpace=wrap;html=1;" vertex="1" parent="1">
          <mxGeometry x="690" y="500" width="280" height="50" as="geometry" />
        </mxCell>
        <mxCell id="9jcXlWBaS0kGvRiVqAq9-38" style="edgeStyle=orthogonalEdgeStyle;rounded=0;orthogonalLoop=1;jettySize=auto;html=1;entryX=0;entryY=0.5;entryDx=0;entryDy=0;" edge="1" parent="1" source="9jcXlWBaS0kGvRiVqAq9-37" target="9jcXlWBaS0kGvRiVqAq9-12">
          <mxGeometry relative="1" as="geometry" />
        </mxCell>
        <mxCell id="9jcXlWBaS0kGvRiVqAq9-37" value="`\text{Avg. Creditors}/\text{Cr. Purchases}xx \text{365/52/12}`" style="rounded=0;whiteSpace=wrap;html=1;" vertex="1" parent="1">
          <mxGeometry x="690" y="570" width="280" height="50" as="geometry" />
        </mxCell>
        <mxCell id="9jcXlWBaS0kGvRiVqAq9-110" style="edgeStyle=orthogonalEdgeStyle;rounded=0;orthogonalLoop=1;jettySize=auto;html=1;entryX=-0.002;entryY=0.288;entryDx=0;entryDy=0;entryPerimeter=0;" edge="1" parent="1" source="9jcXlWBaS0kGvRiVqAq9-39" target="9jcXlWBaS0kGvRiVqAq9-93">
          <mxGeometry relative="1" as="geometry">
            <Array as="points">
              <mxPoint x="30" y="285" />
              <mxPoint x="30" y="375" />
            </Array>
          </mxGeometry>
        </mxCell>
        <mxCell id="9jcXlWBaS0kGvRiVqAq9-39" value="`\text{Avg. Stock of RM}=\text{RM consumed}xx \text{Avg holding period of RM}/ \text{365/52/12}`" style="rounded=0;whiteSpace=wrap;html=1;" vertex="1" parent="1">
          <mxGeometry x="-480" y="260" width="480" height="50" as="geometry" />
        </mxCell>
        <mxCell id="9jcXlWBaS0kGvRiVqAq9-111" style="edgeStyle=orthogonalEdgeStyle;rounded=0;orthogonalLoop=1;jettySize=auto;html=1;entryX=0;entryY=0.417;entryDx=0;entryDy=0;entryPerimeter=0;" edge="1" parent="1" source="9jcXlWBaS0kGvRiVqAq9-40" target="9jcXlWBaS0kGvRiVqAq9-93">
          <mxGeometry relative="1" as="geometry" />
        </mxCell>
        <mxCell id="9jcXlWBaS0kGvRiVqAq9-40" value="`\text{Avg. Stock of WIP}=\text{COP}xx \text{Avg conversion period}/ \text{365/52/12}`" style="rounded=0;whiteSpace=wrap;html=1;" vertex="1" parent="1">
          <mxGeometry x="-500" y="330" width="480" height="50" as="geometry" />
        </mxCell>
        <mxCell id="9jcXlWBaS0kGvRiVqAq9-112" style="edgeStyle=orthogonalEdgeStyle;rounded=0;orthogonalLoop=1;jettySize=auto;html=1;entryX=-0.001;entryY=0.539;entryDx=0;entryDy=0;entryPerimeter=0;" edge="1" parent="1" source="9jcXlWBaS0kGvRiVqAq9-41" target="9jcXlWBaS0kGvRiVqAq9-93">
          <mxGeometry relative="1" as="geometry" />
        </mxCell>
        <mxCell id="9jcXlWBaS0kGvRiVqAq9-41" value="`\text{Avg. Stock of FG}=\text{COGS}xx \text{Avg holding period of FG}/ \text{365/52/12}`" style="rounded=0;whiteSpace=wrap;html=1;" vertex="1" parent="1">
          <mxGeometry x="-500" y="390" width="480" height="50" as="geometry" />
        </mxCell>
        <mxCell id="9jcXlWBaS0kGvRiVqAq9-113" style="edgeStyle=orthogonalEdgeStyle;rounded=0;orthogonalLoop=1;jettySize=auto;html=1;entryX=-0.008;entryY=0.664;entryDx=0;entryDy=0;entryPerimeter=0;" edge="1" parent="1" source="9jcXlWBaS0kGvRiVqAq9-42" target="9jcXlWBaS0kGvRiVqAq9-93">
          <mxGeometry relative="1" as="geometry" />
        </mxCell>
        <mxCell id="9jcXlWBaS0kGvRiVqAq9-42" value="`\text{Avg. Debtors}=\text{Cr. Sales}xx \text{Avg Collection period}/ \text{365/52/12}`" style="rounded=0;whiteSpace=wrap;html=1;" vertex="1" parent="1">
          <mxGeometry x="-480" y="460" width="480" height="50" as="geometry" />
        </mxCell>
        <mxCell id="9jcXlWBaS0kGvRiVqAq9-114" style="edgeStyle=orthogonalEdgeStyle;rounded=0;orthogonalLoop=1;jettySize=auto;html=1;entryX=0;entryY=0.5;entryDx=0;entryDy=0;" edge="1" parent="1" source="9jcXlWBaS0kGvRiVqAq9-43" target="9jcXlWBaS0kGvRiVqAq9-99">
          <mxGeometry relative="1" as="geometry" />
        </mxCell>
        <mxCell id="9jcXlWBaS0kGvRiVqAq9-115" style="edgeStyle=orthogonalEdgeStyle;rounded=0;orthogonalLoop=1;jettySize=auto;html=1;entryX=0;entryY=0.796;entryDx=0;entryDy=0;entryPerimeter=0;" edge="1" parent="1" source="9jcXlWBaS0kGvRiVqAq9-43" target="9jcXlWBaS0kGvRiVqAq9-99">
          <mxGeometry relative="1" as="geometry" />
        </mxCell>
        <mxCell id="9jcXlWBaS0kGvRiVqAq9-43" value="`\text{Avg. Creditors}=\text{Cr. Purchases}xx \text{Avg Payment period}/ \text{365/52/12}`" style="rounded=0;whiteSpace=wrap;html=1;" vertex="1" parent="1">
          <mxGeometry x="-480" y="525" width="480" height="50" as="geometry" />
        </mxCell>
        <mxCell id="9jcXlWBaS0kGvRiVqAq9-44" value="" style="shape=table;startSize=0;container=1;collapsible=0;childLayout=tableLayout;" vertex="1" parent="1">
          <mxGeometry x="60" y="690" width="480" height="560" as="geometry" />
        </mxCell>
        <mxCell id="9jcXlWBaS0kGvRiVqAq9-45" value="" style="shape=partialRectangle;collapsible=0;dropTarget=0;pointerEvents=0;fillColor=none;top=0;left=0;bottom=0;right=0;points=[[0,0.5],[1,0.5]];portConstraint=eastwest;" vertex="1" parent="9jcXlWBaS0kGvRiVqAq9-44">
          <mxGeometry width="480" height="40" as="geometry" />
        </mxCell>
        <mxCell id="9jcXlWBaS0kGvRiVqAq9-46" value="Particulars" style="shape=partialRectangle;html=1;whiteSpace=wrap;connectable=0;overflow=hidden;fillColor=none;top=0;left=0;bottom=0;right=0;pointerEvents=1;" vertex="1" parent="9jcXlWBaS0kGvRiVqAq9-45">
          <mxGeometry width="280" height="40" as="geometry" />
        </mxCell>
        <mxCell id="9jcXlWBaS0kGvRiVqAq9-47" value="Total cost basics&lt;br&gt;&lt;div&gt;Amt.&lt;/div&gt;" style="shape=partialRectangle;html=1;whiteSpace=wrap;connectable=0;overflow=hidden;fillColor=none;top=0;left=0;bottom=0;right=0;pointerEvents=1;" vertex="1" parent="9jcXlWBaS0kGvRiVqAq9-45">
          <mxGeometry x="280" width="100" height="40" as="geometry" />
        </mxCell>
        <mxCell id="9jcXlWBaS0kGvRiVqAq9-120" value="&lt;div&gt;Cash cost basics&lt;/div&gt;&lt;div&gt;Amt&lt;br&gt;&lt;/div&gt;" style="shape=partialRectangle;html=1;whiteSpace=wrap;connectable=0;overflow=hidden;fillColor=none;top=0;left=0;bottom=0;right=0;pointerEvents=1;" vertex="1" parent="9jcXlWBaS0kGvRiVqAq9-45">
          <mxGeometry x="380" width="100" height="40" as="geometry" />
        </mxCell>
        <mxCell id="9jcXlWBaS0kGvRiVqAq9-48" value="" style="shape=partialRectangle;collapsible=0;dropTarget=0;pointerEvents=0;fillColor=none;top=0;left=0;bottom=0;right=0;points=[[0,0.5],[1,0.5]];portConstraint=eastwest;" vertex="1" parent="9jcXlWBaS0kGvRiVqAq9-44">
          <mxGeometry y="40" width="480" height="40" as="geometry" />
        </mxCell>
        <mxCell id="9jcXlWBaS0kGvRiVqAq9-49" value="Raw materials consumed" style="shape=partialRectangle;html=1;whiteSpace=wrap;connectable=0;overflow=hidden;fillColor=none;top=0;left=0;bottom=0;right=0;pointerEvents=1;" vertex="1" parent="9jcXlWBaS0kGvRiVqAq9-48">
          <mxGeometry width="280" height="40" as="geometry" />
        </mxCell>
        <mxCell id="9jcXlWBaS0kGvRiVqAq9-50" value="xx" style="shape=partialRectangle;html=1;whiteSpace=wrap;connectable=0;overflow=hidden;fillColor=none;top=0;left=0;bottom=0;right=0;pointerEvents=1;" vertex="1" parent="9jcXlWBaS0kGvRiVqAq9-48">
          <mxGeometry x="280" width="100" height="40" as="geometry" />
        </mxCell>
        <mxCell id="9jcXlWBaS0kGvRiVqAq9-121" value="xx" style="shape=partialRectangle;html=1;whiteSpace=wrap;connectable=0;overflow=hidden;fillColor=none;top=0;left=0;bottom=0;right=0;pointerEvents=1;" vertex="1" parent="9jcXlWBaS0kGvRiVqAq9-48">
          <mxGeometry x="380" width="100" height="40" as="geometry" />
        </mxCell>
        <mxCell id="9jcXlWBaS0kGvRiVqAq9-51" value="" style="shape=partialRectangle;collapsible=0;dropTarget=0;pointerEvents=0;fillColor=none;top=0;left=0;bottom=0;right=0;points=[[0,0.5],[1,0.5]];portConstraint=eastwest;" vertex="1" parent="9jcXlWBaS0kGvRiVqAq9-44">
          <mxGeometry y="80" width="480" height="40" as="geometry" />
        </mxCell>
        <mxCell id="9jcXlWBaS0kGvRiVqAq9-52" value="Direct wages" style="shape=partialRectangle;html=1;whiteSpace=wrap;connectable=0;overflow=hidden;fillColor=none;top=0;left=0;bottom=0;right=0;pointerEvents=1;" vertex="1" parent="9jcXlWBaS0kGvRiVqAq9-51">
          <mxGeometry width="280" height="40" as="geometry" />
        </mxCell>
        <mxCell id="9jcXlWBaS0kGvRiVqAq9-53" value="xx" style="shape=partialRectangle;html=1;whiteSpace=wrap;connectable=0;overflow=hidden;fillColor=none;top=0;left=0;bottom=0;right=0;pointerEvents=1;" vertex="1" parent="9jcXlWBaS0kGvRiVqAq9-51">
          <mxGeometry x="280" width="100" height="40" as="geometry" />
        </mxCell>
        <mxCell id="9jcXlWBaS0kGvRiVqAq9-122" value="xx" style="shape=partialRectangle;html=1;whiteSpace=wrap;connectable=0;overflow=hidden;fillColor=none;top=0;left=0;bottom=0;right=0;pointerEvents=1;" vertex="1" parent="9jcXlWBaS0kGvRiVqAq9-51">
          <mxGeometry x="380" width="100" height="40" as="geometry" />
        </mxCell>
        <mxCell id="9jcXlWBaS0kGvRiVqAq9-54" value="" style="shape=partialRectangle;collapsible=0;dropTarget=0;pointerEvents=0;fillColor=none;top=0;left=0;bottom=0;right=0;points=[[0,0.5],[1,0.5]];portConstraint=eastwest;" vertex="1" parent="9jcXlWBaS0kGvRiVqAq9-44">
          <mxGeometry y="120" width="480" height="40" as="geometry" />
        </mxCell>
        <mxCell id="9jcXlWBaS0kGvRiVqAq9-55" value="Manufacturing expenses" style="shape=partialRectangle;html=1;whiteSpace=wrap;connectable=0;overflow=hidden;fillColor=none;top=0;left=0;bottom=0;right=0;pointerEvents=1;" vertex="1" parent="9jcXlWBaS0kGvRiVqAq9-54">
          <mxGeometry width="280" height="40" as="geometry" />
        </mxCell>
        <mxCell id="9jcXlWBaS0kGvRiVqAq9-56" value="xx" style="shape=partialRectangle;html=1;whiteSpace=wrap;connectable=0;overflow=hidden;fillColor=none;top=0;left=0;bottom=0;right=0;pointerEvents=1;" vertex="1" parent="9jcXlWBaS0kGvRiVqAq9-54">
          <mxGeometry x="280" width="100" height="40" as="geometry" />
        </mxCell>
        <mxCell id="9jcXlWBaS0kGvRiVqAq9-123" value="xx" style="shape=partialRectangle;html=1;whiteSpace=wrap;connectable=0;overflow=hidden;fillColor=none;top=0;left=0;bottom=0;right=0;pointerEvents=1;" vertex="1" parent="9jcXlWBaS0kGvRiVqAq9-54">
          <mxGeometry x="380" width="100" height="40" as="geometry" />
        </mxCell>
        <mxCell id="9jcXlWBaS0kGvRiVqAq9-57" value="" style="shape=partialRectangle;collapsible=0;dropTarget=0;pointerEvents=0;fillColor=none;top=0;left=0;bottom=0;right=0;points=[[0,0.5],[1,0.5]];portConstraint=eastwest;" vertex="1" parent="9jcXlWBaS0kGvRiVqAq9-44">
          <mxGeometry y="160" width="480" height="40" as="geometry" />
        </mxCell>
        <mxCell id="9jcXlWBaS0kGvRiVqAq9-58" value="Depreciation" style="shape=partialRectangle;html=1;whiteSpace=wrap;connectable=0;overflow=hidden;fillColor=none;top=0;left=0;bottom=0;right=0;pointerEvents=1;" vertex="1" parent="9jcXlWBaS0kGvRiVqAq9-57">
          <mxGeometry width="280" height="40" as="geometry" />
        </mxCell>
        <mxCell id="9jcXlWBaS0kGvRiVqAq9-59" value="xx" style="shape=partialRectangle;html=1;whiteSpace=wrap;connectable=0;overflow=hidden;fillColor=none;top=0;left=0;bottom=0;right=0;pointerEvents=1;" vertex="1" parent="9jcXlWBaS0kGvRiVqAq9-57">
          <mxGeometry x="280" width="100" height="40" as="geometry" />
        </mxCell>
        <mxCell id="9jcXlWBaS0kGvRiVqAq9-124" value="Do not consider" style="shape=partialRectangle;html=1;whiteSpace=wrap;connectable=0;overflow=hidden;fillColor=none;top=0;left=0;bottom=0;right=0;pointerEvents=1;" vertex="1" parent="9jcXlWBaS0kGvRiVqAq9-57">
          <mxGeometry x="380" width="100" height="40" as="geometry" />
        </mxCell>
        <mxCell id="9jcXlWBaS0kGvRiVqAq9-60" value="" style="shape=partialRectangle;collapsible=0;dropTarget=0;pointerEvents=0;fillColor=none;top=0;left=0;bottom=0;right=0;points=[[0,0.5],[1,0.5]];portConstraint=eastwest;" vertex="1" parent="9jcXlWBaS0kGvRiVqAq9-44">
          <mxGeometry y="200" width="480" height="40" as="geometry" />
        </mxCell>
        <mxCell id="9jcXlWBaS0kGvRiVqAq9-61" value="Cost of production (COP)" style="shape=partialRectangle;html=1;whiteSpace=wrap;connectable=0;overflow=hidden;fillColor=none;top=0;left=0;bottom=0;right=0;pointerEvents=1;" vertex="1" parent="9jcXlWBaS0kGvRiVqAq9-60">
          <mxGeometry width="280" height="40" as="geometry" />
        </mxCell>
        <mxCell id="9jcXlWBaS0kGvRiVqAq9-62" value="xxxxxxx" style="shape=partialRectangle;html=1;whiteSpace=wrap;connectable=0;overflow=hidden;fillColor=none;top=0;left=0;bottom=0;right=0;pointerEvents=1;" vertex="1" parent="9jcXlWBaS0kGvRiVqAq9-60">
          <mxGeometry x="280" width="100" height="40" as="geometry" />
        </mxCell>
        <mxCell id="9jcXlWBaS0kGvRiVqAq9-125" value="xxxxxxx" style="shape=partialRectangle;html=1;whiteSpace=wrap;connectable=0;overflow=hidden;fillColor=none;top=0;left=0;bottom=0;right=0;pointerEvents=1;" vertex="1" parent="9jcXlWBaS0kGvRiVqAq9-60">
          <mxGeometry x="380" width="100" height="40" as="geometry" />
        </mxCell>
        <mxCell id="9jcXlWBaS0kGvRiVqAq9-63" value="" style="shape=partialRectangle;collapsible=0;dropTarget=0;pointerEvents=0;fillColor=none;top=0;left=0;bottom=0;right=0;points=[[0,0.5],[1,0.5]];portConstraint=eastwest;" vertex="1" parent="9jcXlWBaS0kGvRiVqAq9-44">
          <mxGeometry y="240" width="480" height="40" as="geometry" />
        </mxCell>
        <mxCell id="9jcXlWBaS0kGvRiVqAq9-64" value="(+) Opening FG" style="shape=partialRectangle;html=1;whiteSpace=wrap;connectable=0;overflow=hidden;fillColor=none;top=0;left=0;bottom=0;right=0;pointerEvents=1;" vertex="1" parent="9jcXlWBaS0kGvRiVqAq9-63">
          <mxGeometry width="280" height="40" as="geometry" />
        </mxCell>
        <mxCell id="9jcXlWBaS0kGvRiVqAq9-65" value="xx" style="shape=partialRectangle;html=1;whiteSpace=wrap;connectable=0;overflow=hidden;fillColor=none;top=0;left=0;bottom=0;right=0;pointerEvents=1;" vertex="1" parent="9jcXlWBaS0kGvRiVqAq9-63">
          <mxGeometry x="280" width="100" height="40" as="geometry" />
        </mxCell>
        <mxCell id="9jcXlWBaS0kGvRiVqAq9-126" value="xx" style="shape=partialRectangle;html=1;whiteSpace=wrap;connectable=0;overflow=hidden;fillColor=none;top=0;left=0;bottom=0;right=0;pointerEvents=1;" vertex="1" parent="9jcXlWBaS0kGvRiVqAq9-63">
          <mxGeometry x="380" width="100" height="40" as="geometry" />
        </mxCell>
        <mxCell id="9jcXlWBaS0kGvRiVqAq9-66" value="" style="shape=partialRectangle;collapsible=0;dropTarget=0;pointerEvents=0;fillColor=none;top=0;left=0;bottom=0;right=0;points=[[0,0.5],[1,0.5]];portConstraint=eastwest;" vertex="1" parent="9jcXlWBaS0kGvRiVqAq9-44">
          <mxGeometry y="280" width="480" height="40" as="geometry" />
        </mxCell>
        <mxCell id="9jcXlWBaS0kGvRiVqAq9-67" value="(-) Closing FG" style="shape=partialRectangle;html=1;whiteSpace=wrap;connectable=0;overflow=hidden;fillColor=none;top=0;left=0;bottom=0;right=0;pointerEvents=1;" vertex="1" parent="9jcXlWBaS0kGvRiVqAq9-66">
          <mxGeometry width="280" height="40" as="geometry" />
        </mxCell>
        <mxCell id="9jcXlWBaS0kGvRiVqAq9-68" value="(xx)" style="shape=partialRectangle;html=1;whiteSpace=wrap;connectable=0;overflow=hidden;fillColor=none;top=0;left=0;bottom=0;right=0;pointerEvents=1;" vertex="1" parent="9jcXlWBaS0kGvRiVqAq9-66">
          <mxGeometry x="280" width="100" height="40" as="geometry" />
        </mxCell>
        <mxCell id="9jcXlWBaS0kGvRiVqAq9-127" value="(xx)" style="shape=partialRectangle;html=1;whiteSpace=wrap;connectable=0;overflow=hidden;fillColor=none;top=0;left=0;bottom=0;right=0;pointerEvents=1;" vertex="1" parent="9jcXlWBaS0kGvRiVqAq9-66">
          <mxGeometry x="380" width="100" height="40" as="geometry" />
        </mxCell>
        <mxCell id="9jcXlWBaS0kGvRiVqAq9-69" value="" style="shape=partialRectangle;collapsible=0;dropTarget=0;pointerEvents=0;fillColor=none;top=0;left=0;bottom=0;right=0;points=[[0,0.5],[1,0.5]];portConstraint=eastwest;" vertex="1" parent="9jcXlWBaS0kGvRiVqAq9-44">
          <mxGeometry y="320" width="480" height="40" as="geometry" />
        </mxCell>
        <mxCell id="9jcXlWBaS0kGvRiVqAq9-70" value="Cost of goods sold" style="shape=partialRectangle;html=1;whiteSpace=wrap;connectable=0;overflow=hidden;fillColor=none;top=0;left=0;bottom=0;right=0;pointerEvents=1;" vertex="1" parent="9jcXlWBaS0kGvRiVqAq9-69">
          <mxGeometry width="280" height="40" as="geometry" />
        </mxCell>
        <mxCell id="9jcXlWBaS0kGvRiVqAq9-71" value="xxxxxxx" style="shape=partialRectangle;html=1;whiteSpace=wrap;connectable=0;overflow=hidden;fillColor=none;top=0;left=0;bottom=0;right=0;pointerEvents=1;" vertex="1" parent="9jcXlWBaS0kGvRiVqAq9-69">
          <mxGeometry x="280" width="100" height="40" as="geometry" />
        </mxCell>
        <mxCell id="9jcXlWBaS0kGvRiVqAq9-128" value="xxxxxxx" style="shape=partialRectangle;html=1;whiteSpace=wrap;connectable=0;overflow=hidden;fillColor=none;top=0;left=0;bottom=0;right=0;pointerEvents=1;" vertex="1" parent="9jcXlWBaS0kGvRiVqAq9-69">
          <mxGeometry x="380" width="100" height="40" as="geometry" />
        </mxCell>
        <mxCell id="9jcXlWBaS0kGvRiVqAq9-72" value="" style="shape=partialRectangle;collapsible=0;dropTarget=0;pointerEvents=0;fillColor=none;top=0;left=0;bottom=0;right=0;points=[[0,0.5],[1,0.5]];portConstraint=eastwest;" vertex="1" parent="9jcXlWBaS0kGvRiVqAq9-44">
          <mxGeometry y="360" width="480" height="40" as="geometry" />
        </mxCell>
        <mxCell id="9jcXlWBaS0kGvRiVqAq9-73" value="Administrative Expenses" style="shape=partialRectangle;html=1;whiteSpace=wrap;connectable=0;overflow=hidden;fillColor=none;top=0;left=0;bottom=0;right=0;pointerEvents=1;" vertex="1" parent="9jcXlWBaS0kGvRiVqAq9-72">
          <mxGeometry width="280" height="40" as="geometry" />
        </mxCell>
        <mxCell id="9jcXlWBaS0kGvRiVqAq9-74" value="xx" style="shape=partialRectangle;html=1;whiteSpace=wrap;connectable=0;overflow=hidden;fillColor=none;top=0;left=0;bottom=0;right=0;pointerEvents=1;" vertex="1" parent="9jcXlWBaS0kGvRiVqAq9-72">
          <mxGeometry x="280" width="100" height="40" as="geometry" />
        </mxCell>
        <mxCell id="9jcXlWBaS0kGvRiVqAq9-129" value="xx" style="shape=partialRectangle;html=1;whiteSpace=wrap;connectable=0;overflow=hidden;fillColor=none;top=0;left=0;bottom=0;right=0;pointerEvents=1;" vertex="1" parent="9jcXlWBaS0kGvRiVqAq9-72">
          <mxGeometry x="380" width="100" height="40" as="geometry" />
        </mxCell>
        <mxCell id="9jcXlWBaS0kGvRiVqAq9-75" value="" style="shape=partialRectangle;collapsible=0;dropTarget=0;pointerEvents=0;fillColor=none;top=0;left=0;bottom=0;right=0;points=[[0,0.5],[1,0.5]];portConstraint=eastwest;" vertex="1" parent="9jcXlWBaS0kGvRiVqAq9-44">
          <mxGeometry y="400" width="480" height="40" as="geometry" />
        </mxCell>
        <mxCell id="9jcXlWBaS0kGvRiVqAq9-76" value="Selling Expenses" style="shape=partialRectangle;html=1;whiteSpace=wrap;connectable=0;overflow=hidden;fillColor=none;top=0;left=0;bottom=0;right=0;pointerEvents=1;" vertex="1" parent="9jcXlWBaS0kGvRiVqAq9-75">
          <mxGeometry width="280" height="40" as="geometry" />
        </mxCell>
        <mxCell id="9jcXlWBaS0kGvRiVqAq9-77" value="xx" style="shape=partialRectangle;html=1;whiteSpace=wrap;connectable=0;overflow=hidden;fillColor=none;top=0;left=0;bottom=0;right=0;pointerEvents=1;" vertex="1" parent="9jcXlWBaS0kGvRiVqAq9-75">
          <mxGeometry x="280" width="100" height="40" as="geometry" />
        </mxCell>
        <mxCell id="9jcXlWBaS0kGvRiVqAq9-130" value="xx" style="shape=partialRectangle;html=1;whiteSpace=wrap;connectable=0;overflow=hidden;fillColor=none;top=0;left=0;bottom=0;right=0;pointerEvents=1;" vertex="1" parent="9jcXlWBaS0kGvRiVqAq9-75">
          <mxGeometry x="380" width="100" height="40" as="geometry" />
        </mxCell>
        <mxCell id="9jcXlWBaS0kGvRiVqAq9-78" value="" style="shape=partialRectangle;collapsible=0;dropTarget=0;pointerEvents=0;fillColor=none;top=0;left=0;bottom=0;right=0;points=[[0,0.5],[1,0.5]];portConstraint=eastwest;" vertex="1" parent="9jcXlWBaS0kGvRiVqAq9-44">
          <mxGeometry y="440" width="480" height="40" as="geometry" />
        </mxCell>
        <mxCell id="9jcXlWBaS0kGvRiVqAq9-79" value="Total Cost" style="shape=partialRectangle;html=1;whiteSpace=wrap;connectable=0;overflow=hidden;fillColor=none;top=0;left=0;bottom=0;right=0;pointerEvents=1;" vertex="1" parent="9jcXlWBaS0kGvRiVqAq9-78">
          <mxGeometry width="280" height="40" as="geometry" />
        </mxCell>
        <mxCell id="9jcXlWBaS0kGvRiVqAq9-80" value="xxxxxxx" style="shape=partialRectangle;html=1;whiteSpace=wrap;connectable=0;overflow=hidden;fillColor=none;top=0;left=0;bottom=0;right=0;pointerEvents=1;" vertex="1" parent="9jcXlWBaS0kGvRiVqAq9-78">
          <mxGeometry x="280" width="100" height="40" as="geometry" />
        </mxCell>
        <mxCell id="9jcXlWBaS0kGvRiVqAq9-131" value="xxxxxxx" style="shape=partialRectangle;html=1;whiteSpace=wrap;connectable=0;overflow=hidden;fillColor=none;top=0;left=0;bottom=0;right=0;pointerEvents=1;" vertex="1" parent="9jcXlWBaS0kGvRiVqAq9-78">
          <mxGeometry x="380" width="100" height="40" as="geometry" />
        </mxCell>
        <mxCell id="9jcXlWBaS0kGvRiVqAq9-81" value="" style="shape=partialRectangle;collapsible=0;dropTarget=0;pointerEvents=0;fillColor=none;top=0;left=0;bottom=0;right=0;points=[[0,0.5],[1,0.5]];portConstraint=eastwest;" vertex="1" parent="9jcXlWBaS0kGvRiVqAq9-44">
          <mxGeometry y="480" width="480" height="40" as="geometry" />
        </mxCell>
        <mxCell id="9jcXlWBaS0kGvRiVqAq9-82" value="(+) Profit" style="shape=partialRectangle;html=1;whiteSpace=wrap;connectable=0;overflow=hidden;fillColor=none;top=0;left=0;bottom=0;right=0;pointerEvents=1;" vertex="1" parent="9jcXlWBaS0kGvRiVqAq9-81">
          <mxGeometry width="280" height="40" as="geometry" />
        </mxCell>
        <mxCell id="9jcXlWBaS0kGvRiVqAq9-83" value="xx" style="shape=partialRectangle;html=1;whiteSpace=wrap;connectable=0;overflow=hidden;fillColor=none;top=0;left=0;bottom=0;right=0;pointerEvents=1;" vertex="1" parent="9jcXlWBaS0kGvRiVqAq9-81">
          <mxGeometry x="280" width="100" height="40" as="geometry" />
        </mxCell>
        <mxCell id="9jcXlWBaS0kGvRiVqAq9-132" value="Do not consider" style="shape=partialRectangle;html=1;whiteSpace=wrap;connectable=0;overflow=hidden;fillColor=none;top=0;left=0;bottom=0;right=0;pointerEvents=1;" vertex="1" parent="9jcXlWBaS0kGvRiVqAq9-81">
          <mxGeometry x="380" width="100" height="40" as="geometry" />
        </mxCell>
        <mxCell id="9jcXlWBaS0kGvRiVqAq9-84" value="" style="shape=partialRectangle;collapsible=0;dropTarget=0;pointerEvents=0;fillColor=none;top=0;left=0;bottom=0;right=0;points=[[0,0.5],[1,0.5]];portConstraint=eastwest;" vertex="1" parent="9jcXlWBaS0kGvRiVqAq9-44">
          <mxGeometry y="520" width="480" height="40" as="geometry" />
        </mxCell>
        <mxCell id="9jcXlWBaS0kGvRiVqAq9-85" value="Sales" style="shape=partialRectangle;html=1;whiteSpace=wrap;connectable=0;overflow=hidden;fillColor=none;top=0;left=0;bottom=0;right=0;pointerEvents=1;" vertex="1" parent="9jcXlWBaS0kGvRiVqAq9-84">
          <mxGeometry width="280" height="40" as="geometry" />
        </mxCell>
        <mxCell id="9jcXlWBaS0kGvRiVqAq9-86" value="XXXXX" style="shape=partialRectangle;html=1;whiteSpace=wrap;connectable=0;overflow=hidden;fillColor=none;top=0;left=0;bottom=0;right=0;pointerEvents=1;" vertex="1" parent="9jcXlWBaS0kGvRiVqAq9-84">
          <mxGeometry x="280" width="100" height="40" as="geometry" />
        </mxCell>
        <mxCell id="9jcXlWBaS0kGvRiVqAq9-133" value="Do not consider" style="shape=partialRectangle;html=1;whiteSpace=wrap;connectable=0;overflow=hidden;fillColor=none;top=0;left=0;bottom=0;right=0;pointerEvents=1;" vertex="1" parent="9jcXlWBaS0kGvRiVqAq9-84">
          <mxGeometry x="380" width="100" height="40" as="geometry" />
        </mxCell>
        <mxCell id="9jcXlWBaS0kGvRiVqAq9-88" value="WN1: Income statement" style="rounded=1;whiteSpace=wrap;html=1;" vertex="1" parent="1">
          <mxGeometry x="60" y="650" width="480" height="40" as="geometry" />
        </mxCell>
        <mxCell id="9jcXlWBaS0kGvRiVqAq9-89" value="Statement to determine WC requirement" style="shape=table;startSize=30;container=1;collapsible=0;childLayout=tableLayout;" vertex="1" parent="1">
          <mxGeometry x="60" y="280" width="480" height="350" as="geometry" />
        </mxCell>
        <mxCell id="9jcXlWBaS0kGvRiVqAq9-90" value="" style="shape=partialRectangle;collapsible=0;dropTarget=0;pointerEvents=0;fillColor=none;top=0;left=0;bottom=0;right=0;points=[[0,0.5],[1,0.5]];portConstraint=eastwest;" vertex="1" parent="9jcXlWBaS0kGvRiVqAq9-89">
          <mxGeometry y="30" width="480" height="30" as="geometry" />
        </mxCell>
        <mxCell id="9jcXlWBaS0kGvRiVqAq9-91" value="Particulars" style="shape=partialRectangle;html=1;whiteSpace=wrap;connectable=0;overflow=hidden;fillColor=none;top=0;left=0;bottom=0;right=0;pointerEvents=1;" vertex="1" parent="9jcXlWBaS0kGvRiVqAq9-90">
          <mxGeometry width="280" height="30" as="geometry" />
        </mxCell>
        <mxCell id="9jcXlWBaS0kGvRiVqAq9-92" value="Total cost basics&lt;br&gt;&lt;div&gt;Amt.&lt;/div&gt;" style="shape=partialRectangle;html=1;whiteSpace=wrap;connectable=0;overflow=hidden;fillColor=none;top=0;left=0;bottom=0;right=0;pointerEvents=1;" vertex="1" parent="9jcXlWBaS0kGvRiVqAq9-90">
          <mxGeometry x="280" width="100" height="30" as="geometry" />
        </mxCell>
        <mxCell id="9jcXlWBaS0kGvRiVqAq9-105" value="Cash cost Basics&lt;br&gt;&lt;div&gt;Amt.&lt;/div&gt;" style="shape=partialRectangle;html=1;whiteSpace=wrap;connectable=0;overflow=hidden;fillColor=none;top=0;left=0;bottom=0;right=0;pointerEvents=1;" vertex="1" parent="9jcXlWBaS0kGvRiVqAq9-90">
          <mxGeometry x="380" width="100" height="30" as="geometry" />
        </mxCell>
        <mxCell id="9jcXlWBaS0kGvRiVqAq9-93" value="" style="shape=partialRectangle;collapsible=0;dropTarget=0;pointerEvents=0;fillColor=none;top=0;left=0;bottom=0;right=0;points=[[0,0.5],[1,0.5]];portConstraint=eastwest;" vertex="1" parent="9jcXlWBaS0kGvRiVqAq9-89">
          <mxGeometry y="60" width="480" height="120" as="geometry" />
        </mxCell>
        <mxCell id="9jcXlWBaS0kGvRiVqAq9-94" value="&lt;div align=&quot;left&quot;&gt;A] CA&lt;/div&gt;&lt;div align=&quot;left&quot;&gt;&lt;span style=&quot;white-space: pre&quot;&gt;	&lt;/span&gt;I. Stock&lt;/div&gt;&lt;div align=&quot;left&quot;&gt;&lt;span style=&quot;white-space: pre&quot;&gt;	&lt;/span&gt;&lt;span style=&quot;white-space: pre&quot;&gt;	&lt;/span&gt;1. RW&lt;/div&gt;&lt;div align=&quot;left&quot;&gt;&lt;span style=&quot;white-space: pre&quot;&gt;	&lt;/span&gt;&lt;span style=&quot;white-space: pre&quot;&gt;	&lt;/span&gt;2. WIP&lt;/div&gt;&lt;div align=&quot;left&quot;&gt;&lt;span style=&quot;white-space: pre&quot;&gt;	&lt;/span&gt;&lt;span style=&quot;white-space: pre&quot;&gt;&lt;span style=&quot;white-space: pre&quot;&gt;	&lt;/span&gt;3. FG&lt;/span&gt;&lt;/div&gt;&lt;div align=&quot;left&quot;&gt;&lt;span style=&quot;white-space: pre&quot;&gt;&lt;span style=&quot;white-space: pre&quot;&gt;	&lt;/span&gt;II. Debtors&lt;/span&gt;&lt;/div&gt;&lt;div align=&quot;left&quot;&gt;&lt;span style=&quot;white-space: pre&quot;&gt;&lt;span style=&quot;white-space: pre&quot;&gt;	&lt;/span&gt;III. Cash / bank&lt;/span&gt;&lt;/div&gt;&lt;div align=&quot;left&quot;&gt;&lt;span style=&quot;white-space: pre&quot;&gt;&lt;span style=&quot;white-space: pre&quot;&gt;	&lt;/span&gt;IV. Other CA&lt;/span&gt;&lt;br&gt;&lt;/div&gt;" style="shape=partialRectangle;html=1;whiteSpace=wrap;connectable=0;overflow=hidden;fillColor=none;top=0;left=0;bottom=0;right=0;pointerEvents=1;align=left;" vertex="1" parent="9jcXlWBaS0kGvRiVqAq9-93">
          <mxGeometry width="280" height="120" as="geometry" />
        </mxCell>
        <mxCell id="9jcXlWBaS0kGvRiVqAq9-95" value="Use proper totals from &lt;u&gt;&lt;b&gt;Total&lt;/b&gt;&lt;/u&gt; cost table from the below table in the formulas" style="shape=partialRectangle;html=1;whiteSpace=wrap;connectable=0;overflow=hidden;fillColor=none;top=0;left=0;bottom=0;right=0;pointerEvents=1;" vertex="1" parent="9jcXlWBaS0kGvRiVqAq9-93">
          <mxGeometry x="280" width="100" height="120" as="geometry" />
        </mxCell>
        <mxCell id="9jcXlWBaS0kGvRiVqAq9-106" value="Use proper totals from &lt;u&gt;&lt;b&gt;cash&lt;/b&gt;&lt;/u&gt; cost table from the below table in the formulas" style="shape=partialRectangle;html=1;whiteSpace=wrap;connectable=0;overflow=hidden;fillColor=none;top=0;left=0;bottom=0;right=0;pointerEvents=1;" vertex="1" parent="9jcXlWBaS0kGvRiVqAq9-93">
          <mxGeometry x="380" width="100" height="120" as="geometry" />
        </mxCell>
        <mxCell id="9jcXlWBaS0kGvRiVqAq9-96" value="" style="shape=partialRectangle;collapsible=0;dropTarget=0;pointerEvents=0;fillColor=none;top=0;left=0;bottom=0;right=0;points=[[0,0.5],[1,0.5]];portConstraint=eastwest;" vertex="1" parent="9jcXlWBaS0kGvRiVqAq9-89">
          <mxGeometry y="180" width="480" height="40" as="geometry" />
        </mxCell>
        <mxCell id="9jcXlWBaS0kGvRiVqAq9-97" value="Total [A]" style="shape=partialRectangle;html=1;whiteSpace=wrap;connectable=0;overflow=hidden;fillColor=none;top=0;left=0;bottom=0;right=0;pointerEvents=1;" vertex="1" parent="9jcXlWBaS0kGvRiVqAq9-96">
          <mxGeometry width="280" height="40" as="geometry" />
        </mxCell>
        <mxCell id="9jcXlWBaS0kGvRiVqAq9-98" value="" style="shape=partialRectangle;html=1;whiteSpace=wrap;connectable=0;overflow=hidden;fillColor=none;top=0;left=0;bottom=0;right=0;pointerEvents=1;" vertex="1" parent="9jcXlWBaS0kGvRiVqAq9-96">
          <mxGeometry x="280" width="100" height="40" as="geometry" />
        </mxCell>
        <mxCell id="9jcXlWBaS0kGvRiVqAq9-107" style="shape=partialRectangle;html=1;whiteSpace=wrap;connectable=0;overflow=hidden;fillColor=none;top=0;left=0;bottom=0;right=0;pointerEvents=1;" vertex="1" parent="9jcXlWBaS0kGvRiVqAq9-96">
          <mxGeometry x="380" width="100" height="40" as="geometry" />
        </mxCell>
        <mxCell id="9jcXlWBaS0kGvRiVqAq9-99" value="" style="shape=partialRectangle;collapsible=0;dropTarget=0;pointerEvents=0;fillColor=none;top=0;left=0;bottom=0;right=0;points=[[0,0.5],[1,0.5]];portConstraint=eastwest;" vertex="1" parent="9jcXlWBaS0kGvRiVqAq9-89">
          <mxGeometry y="220" width="480" height="50" as="geometry" />
        </mxCell>
        <mxCell id="9jcXlWBaS0kGvRiVqAq9-100" value="&lt;div align=&quot;left&quot;&gt;B] CL&lt;/div&gt;&lt;div align=&quot;left&quot;&gt;&lt;span style=&quot;white-space: pre&quot;&gt;	&lt;/span&gt;I. Creditors&lt;br&gt;&lt;/div&gt;&lt;div&gt;&lt;span style=&quot;white-space: pre&quot;&gt;	&lt;/span&gt;II. Other CL&lt;br&gt;&lt;/div&gt;" style="shape=partialRectangle;html=1;whiteSpace=wrap;connectable=0;overflow=hidden;fillColor=none;top=0;left=0;bottom=0;right=0;pointerEvents=1;align=left;" vertex="1" parent="9jcXlWBaS0kGvRiVqAq9-99">
          <mxGeometry width="280" height="50" as="geometry" />
        </mxCell>
        <mxCell id="9jcXlWBaS0kGvRiVqAq9-101" value="" style="shape=partialRectangle;html=1;whiteSpace=wrap;connectable=0;overflow=hidden;fillColor=none;top=0;left=0;bottom=0;right=0;pointerEvents=1;" vertex="1" parent="9jcXlWBaS0kGvRiVqAq9-99">
          <mxGeometry x="280" width="100" height="50" as="geometry" />
        </mxCell>
        <mxCell id="9jcXlWBaS0kGvRiVqAq9-108" style="shape=partialRectangle;html=1;whiteSpace=wrap;connectable=0;overflow=hidden;fillColor=none;top=0;left=0;bottom=0;right=0;pointerEvents=1;" vertex="1" parent="9jcXlWBaS0kGvRiVqAq9-99">
          <mxGeometry x="380" width="100" height="50" as="geometry" />
        </mxCell>
        <mxCell id="9jcXlWBaS0kGvRiVqAq9-102" value="" style="shape=partialRectangle;collapsible=0;dropTarget=0;pointerEvents=0;fillColor=none;top=0;left=0;bottom=0;right=0;points=[[0,0.5],[1,0.5]];portConstraint=eastwest;" vertex="1" parent="9jcXlWBaS0kGvRiVqAq9-89">
          <mxGeometry y="270" width="480" height="40" as="geometry" />
        </mxCell>
        <mxCell id="9jcXlWBaS0kGvRiVqAq9-103" value="Total [B]" style="shape=partialRectangle;html=1;whiteSpace=wrap;connectable=0;overflow=hidden;fillColor=none;top=0;left=0;bottom=0;right=0;pointerEvents=1;" vertex="1" parent="9jcXlWBaS0kGvRiVqAq9-102">
          <mxGeometry width="280" height="40" as="geometry" />
        </mxCell>
        <mxCell id="9jcXlWBaS0kGvRiVqAq9-104" value="" style="shape=partialRectangle;html=1;whiteSpace=wrap;connectable=0;overflow=hidden;fillColor=none;top=0;left=0;bottom=0;right=0;pointerEvents=1;" vertex="1" parent="9jcXlWBaS0kGvRiVqAq9-102">
          <mxGeometry x="280" width="100" height="40" as="geometry" />
        </mxCell>
        <mxCell id="9jcXlWBaS0kGvRiVqAq9-109" style="shape=partialRectangle;html=1;whiteSpace=wrap;connectable=0;overflow=hidden;fillColor=none;top=0;left=0;bottom=0;right=0;pointerEvents=1;" vertex="1" parent="9jcXlWBaS0kGvRiVqAq9-102">
          <mxGeometry x="380" width="100" height="40" as="geometry" />
        </mxCell>
        <mxCell id="9jcXlWBaS0kGvRiVqAq9-116" style="shape=partialRectangle;collapsible=0;dropTarget=0;pointerEvents=0;fillColor=none;top=0;left=0;bottom=0;right=0;points=[[0,0.5],[1,0.5]];portConstraint=eastwest;" vertex="1" parent="9jcXlWBaS0kGvRiVqAq9-89">
          <mxGeometry y="310" width="480" height="40" as="geometry" />
        </mxCell>
        <mxCell id="9jcXlWBaS0kGvRiVqAq9-117" value="&lt;div&gt;[A] - [B]&lt;/div&gt;&lt;div&gt;(+) x% safety margin&lt;br&gt;&lt;/div&gt;" style="shape=partialRectangle;html=1;whiteSpace=wrap;connectable=0;overflow=hidden;fillColor=none;top=0;left=0;bottom=0;right=0;pointerEvents=1;" vertex="1" parent="9jcXlWBaS0kGvRiVqAq9-116">
          <mxGeometry width="280" height="40" as="geometry" />
        </mxCell>
        <mxCell id="9jcXlWBaS0kGvRiVqAq9-118" style="shape=partialRectangle;html=1;whiteSpace=wrap;connectable=0;overflow=hidden;fillColor=none;top=0;left=0;bottom=0;right=0;pointerEvents=1;" vertex="1" parent="9jcXlWBaS0kGvRiVqAq9-116">
          <mxGeometry x="280" width="100" height="40" as="geometry" />
        </mxCell>
        <mxCell id="9jcXlWBaS0kGvRiVqAq9-119" style="shape=partialRectangle;html=1;whiteSpace=wrap;connectable=0;overflow=hidden;fillColor=none;top=0;left=0;bottom=0;right=0;pointerEvents=1;" vertex="1" parent="9jcXlWBaS0kGvRiVqAq9-116">
          <mxGeometry x="380" width="100" height="40" as="geometry" />
        </mxCell>
      </root>
    </mxGraphModel>
  </diagram>
</mxfile>
